<svg width="1440" height="1024" xmlns="http://www.w3.org/2000/svg">

 <mask height="409" width="650" y="65" x="566" maskUnits="userSpaceOnUse" id="mask0">
  <path id="svg_1" fill="white" d="m593.5,387.5l0,-322l-27,0l0,335.5c0,7.456 6.044,13.5 13.5,13.5l220.221,0c15.722,0 31.146,4.285 44.615,12.394l50.402,30.344c17.673,10.64 37.912,16.262 58.541,16.262l261.721,0l0,-27l-261.721,0c-15.722,0 -31.146,-4.285 -44.615,-12.394l-50.402,-30.344c-17.673,-10.64 -37.912,-16.262 -58.541,-16.262l-206.721,0z"/>
 </mask>
 <mask height="418" width="288" y="139" x="208" maskUnits="userSpaceOnUse" id="mask1">
  <path id="svg_2" fill="white" d="m269.707,551.44c65.254,26.333 154.997,-43.403 200.446,-155.76c45.45,-112.357 29.394,-224.787 -35.86,-251.12c-65.254,-26.333 -154.997,43.403 -200.446,155.76c-45.45,112.357 -29.394,224.787 35.86,251.12z"/>
 </mask>
 <mask height="419" width="684" y="489" x="382" maskUnits="userSpaceOnUse" id="mask2">
  <path id="svg_3" fill="white" d="m992.394,830.285l22.956,16.224c0.16,0.114 0.32,0.234 0.47,0.362c2.64,2.263 2.94,6.239 0.68,8.879c-2.71,3.165 -7.11,4.297 -11.02,2.834c-25.977,-9.738 -40.971,-16.766 -44.98,-21.084l-61.5,-53.5l-78,-19.5l-5,102c-6.338,0.556 -11.172,0.889 -14.5,1c-30,1 -54.331,1.367 -70.278,1.614c-15.994,0.248 -34.791,0 -62.036,-0.838c-2.538,-0.078 -7.708,-0.637 -15.509,-1.676l10.479,-109.359l-64.432,65.417c-5.134,5.212 -10.824,9.845 -16.968,13.816l-58.513,37.814c-6.706,4.334 -14.163,7.374 -21.986,8.965l-119.257,24.247c-1.746,-14.214 4.087,-27.047 17.5,-38.5c11.706,-9.995 50.698,-16.771 78.5,-18.5c2.657,-0.165 25.562,-19.002 68.713,-56.511c1.521,-1.322 2.948,-2.746 4.274,-4.264l73.662,-84.337c17.773,-20.35 43.16,-32.459 70.16,-33.465l38.191,-1.423l8.539,-38.54l-20.798,0c-15.464,0 -28,-12.536 -28,-28c0,-3.077 0.508,-6.133 1.501,-9.044l20.73,-60.735c9.12,-26.721 34.227,-44.681 62.462,-44.681l13.985,0c23.741,0 42.986,19.246 42.986,42.986c0,4.972 -0.862,9.906 -2.549,14.583l-46.856,129.931l126.748,46.391c17.172,6.286 32.292,17.159 43.716,31.438l34.536,43.171c30,-1.333 46.33,0.333 49,5c2.21,3.875 10.06,12.463 23.54,25.764c2.68,2.64 2.7,6.95 0.06,9.626c-0.91,0.928 -2.08,1.574 -3.35,1.86c-7.74,1.737 -15.85,-0.152 -22.02,-5.131l-5.73,-4.619c-20.53,1.119 -33.529,1.119 -39,0c-0.37,-0.076 -0.739,-0.147 -1.106,-0.215z"/>
 </mask>
 <mask height="71" width="143" y="479" x="707" maskUnits="userSpaceOnUse" id="mask3">
  <path id="svg_4" fill="white" d="m707,513.467l143,36.033c-5.928,-5.587 -8.762,-9.851 -8.502,-12.793c2.949,-33.352 -15.553,-43.89 -53.536,-52.136c-38.166,-8.286 -49.812,-9.22 -66.083,19.074c-1.376,2.393 -6.335,5.667 -14.879,9.822z"/>
 </mask>
 <g>
  <title>background</title>
  <rect fill="none" id="canvas_background" height="402" width="582" y="-1" x="-1"/>
 </g>
 <g>
  <title>Layer 1</title>
  <path id="svg_6" fill="#C4C4DE" d="m1130,708.5l34.31,-98.896c10.18,-29.351 2.46,-61.944 -19.81,-83.604l-0.97,-0.941c-22.39,-21.775 -33.32,-52.761 -29.54,-83.764l12.87,-105.772c6.67,-54.824 -32.37,-104.675 -87.19,-111.346c-2.8,-0.34 -5.6,-0.561 -8.42,-0.665l-41.25,-1.512l-84.183,-80.357c-28.686,-27.382 -71.472,-33.816 -106.943,-16.08l-95.325,47.662c-15.436,7.718 -32.607,11.31 -49.843,10.426l-77.375,-3.968c-41.28,-2.116 -77.892,26.301 -86.081,66.817l-12.97,64.166c-0.852,4.218 -1.432,8.487 -1.734,12.78l-12.164,172.538c-0.583,8.27 -2.718,16.356 -6.295,23.835l-33.449,69.938c-10.407,21.759 -12.598,46.546 -6.171,69.793l13.533,48.95l699,0z" clip-rule="evenodd" fill-rule="evenodd"/>
  <path id="svg_7" fill="#8B8BB5" d="m431,708.5l-89.712,97.381c-26.568,28.84 -24.727,73.757 4.113,100.325c12.293,11.325 28.188,17.95 44.886,18.708l665.493,30.216c39.17,1.779 72.37,-28.535 74.15,-67.706c0.05,-1.073 0.07,-2.147 0.07,-3.221l0,-175.703l-699,0z" clip-rule="evenodd" fill-rule="evenodd"/>
  <g id="svg_8" mask="url(#mask0)">
   <path id="svg_9" fill="#FF8484" d="m593.5,387.5l0,-322l-27,0l0,335.5c0,7.456 6.044,13.5 13.5,13.5l220.221,0c15.722,0 31.146,4.285 44.615,12.394l50.402,30.344c17.673,10.64 37.912,16.262 58.541,16.262l261.721,0l0,-27l-261.721,0c-15.722,0 -31.146,-4.285 -44.615,-12.394l-50.402,-30.344c-17.673,-10.64 -37.912,-16.262 -58.541,-16.262l-206.721,0z"/>
   <path id="svg_10" fill="#DE6262" d="m1097,438.5l144,0l0,49l-144,0l0,-49zm-561,-59l144,0l0,49l-144,0l0,-49zm22.5,-116.5l0,-122.5l60.5,0l-11.5,122.5l-49,0zm287,106.5l116,55l0,49c-3.33,12.726 -16.996,18.06 -41,16c-24.004,-2.06 -60.837,-11.726 -110.5,-29l35.5,-91z" clip-rule="evenodd" fill-rule="evenodd"/>
  </g>
  <path id="svg_11" fill="#FFEECD" d="m734,474.5l-332,-318.5l-29,410.5l354.5,-63l6.5,-29z" clip-rule="evenodd" fill-rule="evenodd"/>
  <g id="svg_12" mask="url(#mask1)">
   <path id="svg_13" fill="#F5CB76" d="m371.036,566.627c70.097,-6.162 118.399,-109.04 107.886,-229.784c-10.514,-120.744 -75.861,-213.632 -145.958,-207.47c-70.097,6.162 -118.399,109.04 -107.886,229.784c10.514,120.744 75.861,213.632 145.958,207.47z"/>
   <path id="svg_14" fill="white" d="m489,490l0,18l-108,0l0,-18l-51,0l0,-20l105,0l107,0l0,20l-53,0zm-2,0l-52,0l-52,0l0,16l104,0l0,-16zm-106,-2l54,0l0,-16l-103,0l0,16l49,0zm56,0l52,0l51,0l0,-16l-103,0l0,16zm-80,-283l-53,0l0,16l103,0l0,-16l-50,0zm0,-2l52,0l0,20l-105,0l-108,0l0,-20l54,0l0,-18l107,0l0,18zm-55,18l0,-16l-52,0l-52,0l0,16l104,0zm53,-18l0,-16l-103,0l0,16l50,0l53,0zm-107,47l107,0l0,20l-107,0l-105,0l0,-20l105,0zm0,18l0,-16l-103,0l0,16l103,0zm2,0l103,0l0,-16l-103,0l0,16z"/>
   <path id="svg_15" stroke-width="2" stroke="white" d="m541,536l-105,0l0,18l105,0l0,-18z"/>
   <path id="svg_16" stroke-width="2" stroke="white" d="m594,490l-105,0l0,18l105,0l0,-18z"/>
  </g>
  <path id="svg_17" fill="#353535" d="m714.966,515.5c-17.288,28.847 -17.288,45.565 0,50.155c17.287,4.589 31.965,-9.507 44.034,-42.288l-44.034,-7.867z" clip-rule="evenodd" fill-rule="evenodd"/>
  <path id="svg_18" fill="#353535" d="m735.5,868.5c117.361,0 212.5,-11.641 212.5,-26c0,-14.359 -95.139,-26 -212.5,-26c-117.361,0 -212.5,11.641 -212.5,26c0,14.359 95.139,26 212.5,26z"/>
  <g id="svg_19" mask="url(#mask2)">
   <path id="svg_20" fill="#FFCDCD" d="m992.394,830.285l22.956,16.224c0.16,0.114 0.32,0.234 0.47,0.362c2.64,2.263 2.94,6.239 0.68,8.879c-2.71,3.165 -7.11,4.297 -11.02,2.834c-25.977,-9.738 -40.971,-16.766 -44.98,-21.084l-61.5,-53.5l-78,-19.5l-5,102c-6.338,0.556 -11.172,0.889 -14.5,1c-30,1 -54.331,1.367 -70.278,1.614c-15.994,0.248 -34.791,0 -62.036,-0.838c-2.538,-0.078 -7.708,-0.637 -15.509,-1.676l10.479,-109.359l-64.432,65.417c-5.134,5.212 -10.824,9.845 -16.968,13.816l-58.513,37.814c-6.706,4.334 -14.163,7.374 -21.986,8.965l-119.257,24.247c-1.746,-14.214 4.087,-27.047 17.5,-38.5c11.706,-9.995 50.698,-16.771 78.5,-18.5c2.657,-0.165 25.562,-19.002 68.713,-56.511c1.521,-1.322 2.948,-2.746 4.274,-4.264l73.662,-84.337c17.773,-20.35 43.16,-32.459 70.16,-33.465l38.191,-1.423l8.539,-38.54l-20.798,0c-15.464,0 -28,-12.536 -28,-28c0,-3.077 0.508,-6.133 1.501,-9.044l20.73,-60.735c9.12,-26.721 34.227,-44.681 62.462,-44.681l13.985,0c23.741,0 42.986,19.246 42.986,42.986c0,4.972 -0.862,9.906 -2.549,14.583l-46.856,129.931l126.748,46.391c17.172,6.286 32.292,17.159 43.716,31.438l34.536,43.171c30,-1.333 46.33,0.333 49,5c2.21,3.875 10.06,12.463 23.54,25.764c2.68,2.64 2.7,6.95 0.06,9.626c-0.91,0.928 -2.08,1.574 -3.35,1.86c-7.74,1.737 -15.85,-0.152 -22.02,-5.131l-5.73,-4.619c-20.53,1.119 -33.529,1.119 -39,0c-0.37,-0.076 -0.739,-0.147 -1.106,-0.215z"/>
   <path id="svg_21" fill="#FFF9D6" d="m711,669c9,15.333 24,24 45,26c21,2 36.333,-3 46,-15l106,21.406l-44.5,81.594l-22.5,-3l-19.686,87.976l-184.26,12.524l27.639,-121.901l-27.639,51.766l-77.054,-85.581c33.289,-32.727 62.743,-52.487 88.361,-59.281c25.618,-6.793 46.498,-5.628 62.639,3.497z" clip-rule="evenodd" fill-rule="evenodd"/>
  </g>
  <path id="svg_22" fill="#353535" d="m820.692,540.884l20.305,4.86c0.179,34.502 -8.881,49.492 -27.179,44.97c-9.149,-2.261 -14.329,-7.826 -15.541,-16.695c-7.689,6.275 -15.691,7.994 -24.008,5.154c-16.87,-5.758 -17.654,-22.649 -2.353,-50.673l49.084,11.703c-0.103,0.228 -0.205,0.455 -0.308,0.681z" clip-rule="evenodd" fill-rule="evenodd"/>
  <g id="svg_23" mask="url(#mask3)">
   <path id="svg_24" fill="#3C3CA0" d="m707,513.467l143,36.033c-5.928,-5.587 -8.762,-9.851 -8.502,-12.793c2.949,-33.352 -15.553,-43.89 -53.536,-52.136c-38.166,-8.286 -49.812,-9.22 -66.083,19.074c-1.376,2.393 -6.335,5.667 -14.879,9.822z"/>
   <path id="svg_25" fill="#26266F" d="m736,502.5l108.5,29l3,-11.5l-107.5,-32.5l-4,15z" clip-rule="evenodd" fill-rule="evenodd"/>
  </g>
  <path id="svg_26" fill="#F5CB76" d="m730.5,508.5c10.77,0 19.5,-8.73 19.5,-19.5c0,-10.77 -8.73,-19.5 -19.5,-19.5c-10.77,0 -19.5,8.73 -19.5,19.5c0,10.77 8.73,19.5 19.5,19.5z"/>
  <path id="svg_27" fill="#FFEECD" d="m730.5,503.5c8.56,0 15.5,-6.492 15.5,-14.5c0,-8.008 -6.94,-14.5 -15.5,-14.5c-8.56,0 -15.5,6.492 -15.5,14.5c0,8.008 6.94,14.5 15.5,14.5z"/>
  <path id="svg_28" fill="#353535" d="m724.331,539.376c-2.118,-5.007 -5.186,-7.376 -9.331,-7.376l0,-3c5.174,0 9.105,2.842 11.685,8.294c10.035,-5.98 18.462,-3.798 24.602,6.434c0.426,0.711 0.196,1.632 -0.515,2.058c-0.71,0.426 -1.632,0.196 -2.058,-0.514c-5.497,-9.162 -12.442,-10.691 -21.598,-4.711l-20.743,35.096l12.161,2.371c0.813,0.158 1.343,0.946 1.185,1.759c-0.159,0.813 -0.946,1.344 -1.759,1.185l-14.247,-2.777c-1.017,-0.198 -1.531,-1.343 -1.004,-2.235l21.622,-36.584zm11.669,14.124c-2.209,0 -4,-1.791 -4,-4c0,-2.209 1.791,-4 4,-4c2.21,0 4,1.791 4,4c0,2.209 -1.79,4 -4,4zm-21,-6c-2.209,0 -4,-1.791 -4,-4c0,-2.209 1.791,-4 4,-4c2.21,0 4,1.791 4,4c0,2.209 -1.79,4 -4,4zm-6.359,50.666c-4.552,-1.242 -7.409,-5.01 -6.382,-8.415c1.027,-3.405 5.549,-5.159 10.101,-3.917c4.551,1.242 7.409,5.01 6.382,8.415c-1.027,3.405 -5.549,5.159 -10.101,3.917zm-11.548,13.315c0.286,-0.777 1.149,-1.175 1.926,-0.889c0.777,0.287 1.175,1.149 0.889,1.927l-3.5,9.5c-0.286,0.777 -1.149,1.175 -1.926,0.889c-0.777,-0.287 -1.176,-1.149 -0.889,-1.927l3.5,-9.5zm6,2c0.286,-0.777 1.149,-1.175 1.926,-0.889c0.777,0.287 1.175,1.149 0.889,1.927l-3.5,9.5c-0.286,0.777 -1.149,1.175 -1.926,0.889c-0.777,-0.287 -1.176,-1.149 -0.889,-1.927l3.5,-9.5zm6,2c0.286,-0.777 1.149,-1.175 1.926,-0.889c0.777,0.287 1.175,1.149 0.889,1.927l-3.5,9.5c-0.286,0.777 -1.149,1.175 -1.926,0.889c-0.777,-0.287 -1.176,-1.149 -0.889,-1.927l3.5,-9.5z"/>
  <path id="svg_29" fill="#8B8BB5" d="m875,221l0,20l-105,0l-108,0l0,-20l20,0l0,-20l105,0l107,0l0,20l-19,0zm-88,41l107,0l0,20l-107,0l0,-20zm-243,364l0,19l-108,0l0,-19l-53,0l0,-20l105,0l107,0l0,20l-51,0zm572,-254l54,0l0,20l-105,0l-108,0l0,-20l-53,0l0,-20l105,0l107,0l0,20zm-79,226.5l71,0l0,20l-107,0l0,-19l-71,0l0,-20l107,0l0,19z" clip-rule="evenodd" fill-rule="evenodd"/>
  <path id="svg_30" stroke-width="2" stroke="white" d="m249,186l-105,0l0,18l105,0l0,-18z"/>
  <path id="svg_31" fill="white" d="m319.468,367.028l0,9.424l-8.68,0l0,7.068l-11.16,0l0,-7.068l-30.628,0l0,-9.424l30.628,-26.908l11.16,0l0,26.908l8.68,0zm-38.44,0l18.6,0l0,-15.748l-18.6,15.748zm66.774,17.112c-17.236,0 -25.42,-7.936 -25.42,-22.382c0,-14.384 8.184,-22.258 25.42,-22.258c17.174,0 25.42,7.936 25.42,22.258c0,14.384 -8.246,22.382 -25.42,22.382zm0,-9.362c9.796,0 14.26,-4.898 14.26,-13.02c0,-8.06 -4.464,-12.896 -14.26,-12.896c-9.796,0 -14.26,4.774 -14.26,12.896c0,8.184 4.464,13.02 14.26,13.02zm79.546,-7.75l0,9.424l-8.68,0l0,7.068l-11.16,0l0,-7.068l-30.628,0l0,-9.424l30.628,-26.908l11.16,0l0,26.908l8.68,0zm-38.44,0l18.6,0l0,-15.748l-18.6,15.748z"/>
  <path id="svg_32" fill="#8B8BB5" d="m786,402.5l9,0l0,20l-9,0l0,-20zm226,58l9,0l0,20l-9,0l0,-20z" clip-rule="evenodd" fill-rule="evenodd"/>
  <path id="svg_33" fill="#FF8484" d="m884,850.5l-162,0l0,18.5l-15,0l0,-62c0,-4.142 3.358,-7.5 7.5,-7.5c4.142,0 7.5,3.358 7.5,7.5l0,28.5l162,0l0,-28.5c0,-4.142 3.358,-7.5 7.5,-7.5c4.142,0 7.5,3.358 7.5,7.5l0,52l-15,2l0,-10.5z" clip-rule="evenodd" fill-rule="evenodd"/>
  <path id="svg_34" fill="#353535" d="m430.126,883.546c-6.604,1.981 -11.126,8.059 -11.126,14.954c0,0.828 0.672,1.5 1.5,1.5c0.828,0 1.5,-0.672 1.5,-1.5c0,-5.57 3.653,-10.48 8.988,-12.08l14.943,-4.483c0.449,-0.135 0.809,-0.471 0.973,-0.91c0.595,-1.585 4.751,-4.302 12.212,-7.659c6.92,-3.114 10.795,-3.631 15.458,-3.035l0.636,0.082c0.249,0.032 0.44,0.055 0.624,0.076c0.824,0.091 1.565,-0.502 1.657,-1.325c0.091,-0.824 -0.502,-1.565 -1.325,-1.657c-0.164,-0.018 -0.34,-0.04 -0.573,-0.07c-0.072,-0.009 -0.507,-0.065 -0.639,-0.082c-5.197,-0.664 -9.63,-0.073 -17.07,3.275c-7.535,3.391 -11.949,6.14 -13.435,8.617l-14.323,4.297z"/>
  <path id="svg_35" fill="#FFCDCD" d="m791,588.159c20.279,5.266 32.074,1.333 35.385,-11.8c2.511,-9.959 -2.746,-18.176 -14.278,-15.39c-2.45,0.592 -7.152,5.102 -14.107,13.531l-7,13.659z" clip-rule="evenodd" fill-rule="evenodd"/>
  <path id="svg_36" fill="#353535" d="m1008.71,814.986l15.24,-2.14c8.02,-1.125 16.13,1.211 22.32,6.424l18.26,15.378c0.64,0.533 1.58,0.452 2.12,-0.181c0.53,-0.634 0.45,-1.58 -0.18,-2.114l-18.27,-15.378c-6.84,-5.762 -15.81,-8.343 -24.66,-7.1l-15.25,2.14c-0.82,0.115 -1.39,0.873 -1.28,1.694c0.12,0.82 0.88,1.392 1.7,1.277z"/>
  <path id="svg_37" fill="#353535" d="m769,222l-87,0l0,-2l106,0l0,-19l2,0l0,19l85,0l0,2l-104,0l0,19l-2,0l0,-19zm295,151l-106.5,0c-0.552,0 -1,-0.448 -1,-1c0,-0.552 0.448,-1 1,-1l52.5,0l0,-19l2,0l0,19l104,0c0.55,0 1,0.448 1,1c0,0.552 -0.45,1 -1,1l-50,0l0,19l-2,0l0,-19zm-63,227c-0.55,0 -1,-0.448 -1,-1c0,-0.552 0.45,-1 1,-1l36,0c0.55,0 1,0.448 1,1c0,0.552 -0.45,1 -1,1l-36,0zm-513,25l0,-19l2,0l0,19l54,0l0,2l-107,0l0,-2l51,0z"/>
 </g>
</svg>