<?xml version="1.0" standalone="no"?>
<!DOCTYPE svg PUBLIC "-//W3C//DTD SVG 20010904//EN"
 "http://www.w3.org/TR/2001/REC-SVG-20010904/DTD/svg10.dtd">
<svg version="1.0" xmlns="http://www.w3.org/2000/svg"
 width="192.000000pt" height="192.000000pt" viewBox="0 0 192.000000 192.000000"
 preserveAspectRatio="xMidYMid meet">
<metadata>
Created by potrace 1.16, written by Peter Selinger 2001-2019
</metadata>
<g transform="translate(0.000000,192.000000) scale(0.100000,-0.100000)"
fill="#02a66f" stroke="none">
<path d="M392 1740 c-18 -11 -41 -34 -52 -52 -19 -32 -20 -52 -20 -728 0 -676
1 -696 20 -728 11 -18 34 -41 52 -52 32 -19 52 -20 568 -20 516 0 536 1 568
20 18 11 41 34 52 52 19 32 20 52 20 728 0 676 -1 696 -20 728 -11 18 -34 41
-52 52 -32 19 -52 20 -568 20 -516 0 -536 -1 -568 -20z m488 -456 c0 -173 -3
-313 -7 -311 -5 2 -47 27 -94 55 -48 29 -92 52 -99 52 -7 0 -51 -23 -99 -52
-47 -28 -89 -53 -93 -55 -5 -2 -8 138 -8 311 l0 316 200 0 200 0 0 -316z"/>
</g>
</svg>
