<?xml version="1.0" standalone="no"?>
<!DOCTYPE svg PUBLIC "-//W3C//DTD SVG 20010904//EN"
 "http://www.w3.org/TR/2001/REC-SVG-20010904/DTD/svg10.dtd">
<svg version="1.0" xmlns="http://www.w3.org/2000/svg"
 width="192.000000pt" height="192.000000pt" viewBox="0 0 192.000000 192.000000"
 preserveAspectRatio="xMidYMid meet">
<metadata>
Created by potrace 1.16, written by Peter Selinger 2001-2019
</metadata>
<g transform="translate(0.000000,192.000000) scale(0.100000,-0.100000)"
fill="#6f6f6f" stroke="none">
<path d="M550 1322 l-394 -357 122 -3 122 -3 0 -319 0 -320 200 0 200 0 0 240
0 240 160 0 160 0 0 -240 0 -240 200 0 200 0 0 320 0 319 122 3 122 3 -397
358 c-218 196 -402 357 -409 356 -7 0 -191 -161 -408 -357z"/>
</g>
</svg>
