<?xml version="1.0" standalone="no"?>
<!DOCTYPE svg PUBLIC "-//W3C//DTD SVG 20010904//EN"
 "http://www.w3.org/TR/2001/REC-SVG-20010904/DTD/svg10.dtd">
<svg version="1.0" xmlns="http://www.w3.org/2000/svg"
 width="192.000000pt" height="192.000000pt" viewBox="0 0 192.000000 192.000000"
 preserveAspectRatio="xMidYMid meet">
<metadata>
Created by potrace 1.16, written by Peter Selinger 2001-2019
</metadata>
<g transform="translate(0.000000,192.000000) scale(0.100000,-0.100000)"
fill="#6f6f6f" stroke="none">
<path d="M783 1760 c-26 -11 -29 -19 -44 -143 -12 -91 -15 -100 -37 -108 -14
-5 -44 -22 -67 -38 l-42 -28 -94 38 c-145 58 -133 64 -233 -110 -47 -82 -86
-160 -86 -173 0 -18 21 -40 89 -92 l89 -69 0 -77 0 -77 -89 -69 c-66 -51 -89
-74 -89 -91 0 -13 39 -91 86 -173 100 -175 88 -170 234 -111 93 38 96 38 120
21 14 -9 43 -27 66 -38 l41 -21 13 -103 c7 -57 17 -111 22 -120 8 -16 28 -18
198 -18 170 0 190 2 198 18 5 9 15 63 22 120 l12 103 42 21 c22 11 52 29 66
38 24 17 27 17 120 -21 146 -59 134 -64 234 111 47 82 86 160 86 173 0 17 -23
40 -90 92 l-90 69 0 76 0 76 90 69 c69 53 90 75 90 93 0 13 -39 91 -86 173
-100 174 -88 168 -233 110 l-94 -38 -42 28 c-23 16 -53 33 -67 38 -23 9 -26
17 -38 115 -7 59 -19 114 -26 124 -11 15 -34 17 -181 19 -92 1 -178 -2 -190
-7z m287 -551 c101 -45 160 -138 160 -249 -1 -156 -115 -270 -270 -270 -155 0
-269 114 -270 270 0 155 114 270 270 270 44 0 80 -7 110 -21z"/>
</g>
</svg>
